<svg width="633" height="111" viewBox="0 0 633 111" fill="none" xmlns="http://www.w3.org/2000/svg" role="img" aria-label="Desenvor Agência">
<path d="M47.0662 0.0132596H0V30.9266L6.77679 28.0487V65.5531H47.0662C60.4606 65.5531 71.4546 54.5591 71.4546 41.1381V24.3885C71.4546 10.9675 60.4606 0 47.0662 0M60.3147 41.1514C60.3147 48.4587 54.3602 54.4132 47.0794 54.4132H18.2748V23.1551L11.498 26.0329V11.1532H47.0794C54.3602 11.1532 60.3147 17.1343 60.3147 24.415V41.1647V41.1514Z" fill="#F5F6FA"/>
<path d="M81.0562 24.4017V41.1514C81.0562 54.5724 92.0369 65.5531 105.458 65.5531H150.972V54.4132H105.458C98.1639 54.4132 92.1961 48.4454 92.1961 41.1514V38.3399H146.888V27.2H92.1961V24.4017C92.1961 17.1077 98.1639 11.1399 105.458 11.1399H150.972V0H105.458C92.0369 0 81.0562 10.9808 81.0562 24.4017Z" fill="#F5F6FA"/>
<path d="M220.65 33.6452L220.186 33.4861L175.255 21.4443L175.162 21.4178C173.067 20.6619 171.688 18.6594 171.688 16.4446C171.688 13.527 174.061 11.1532 176.979 11.1532H229.615V0.0132446H176.979C167.908 0.0132446 160.548 7.37356 160.548 16.4446C160.548 23.3938 164.937 29.6004 171.489 31.9344L171.953 32.0936L216.884 44.1353L216.977 44.1618C219.059 44.931 220.451 46.907 220.451 49.135C220.451 52.0526 218.077 54.4265 215.16 54.4265H162.524V65.5664H215.16C224.231 65.5664 231.591 58.2061 231.591 49.135C231.591 42.1858 227.215 35.966 220.65 33.6452Z" fill="#F5F6FA"/>
<path d="M239.137 24.4017V41.1514C239.137 54.5724 250.118 65.5531 263.539 65.5531H309.053V54.4132H263.539C256.245 54.4132 250.277 48.4454 250.277 41.1514V38.3399H304.969V27.2H250.277V24.4017C250.277 17.1077 256.245 11.1399 263.539 11.1399H309.053V0H263.539C250.118 0 239.137 10.9808 239.137 24.4017Z" fill="#F5F6FA"/>
<path d="M377.789 50.554C377.789 52.5831 376.132 54.2408 374.102 54.2408H372.737C371.901 54.2408 371.066 54.0286 370.336 53.6308C369.063 52.9412 368.44 51.92 367.763 50.6734C367.525 50.2225 367.299 49.7716 367.074 49.3207C366.862 48.8698 366.663 48.4321 366.45 47.968C366.252 47.5303 366.066 47.0927 365.867 46.6551L351.372 14.5084C351.186 14.084 351 13.6597 350.802 13.2353C350.563 12.7048 350.324 12.1611 350.072 11.6439C349.767 11.0073 349.449 10.384 349.117 9.7607C347.34 6.4585 345.232 3.96528 341.89 2.16167C339.476 0.862014 336.77 0.1724 334.025 0.1724H332.659C324.291 0.1724 317.488 6.97571 317.488 15.3439V65.5664H328.973V15.3439C328.973 13.3149 330.63 11.6571 332.659 11.6571H334.025C334.861 11.6571 335.696 11.8693 336.426 12.2672C337.699 12.9568 338.322 13.9779 338.998 15.2246C339.237 15.6755 339.463 16.1264 339.688 16.5773C339.9 17.0282 340.099 17.4791 340.311 17.93C340.51 18.3676 340.696 18.8053 340.895 19.2429L355.39 51.3895C355.576 51.8139 355.761 52.2383 355.96 52.6494C356.199 53.1799 356.438 53.7236 356.69 54.2541C356.995 54.8906 357.313 55.5272 357.645 56.1373C359.422 59.4395 361.517 61.9327 364.859 63.7363C367.273 65.0359 369.978 65.7255 372.723 65.7255H374.089C382.457 65.7255 389.261 58.9222 389.261 50.554V0H377.776V50.554H377.789Z" fill="#F5F6FA"/>
<path d="M461.591 11.7102L457.015 23.2082L447.493 47.1325C445.663 51.7211 441.645 54.4397 436.712 54.4397C431.778 54.4397 427.76 51.7211 425.93 47.1325L416.408 23.2082L411.832 11.7102L407.164 0.0132446H395.176L415.585 51.2436C419.1 60.0627 427.229 65.5797 436.725 65.5797C446.22 65.5797 454.35 60.076 457.864 51.2436L478.274 0.0132446H466.285L461.617 11.7102H461.591Z" fill="#F5F6FA"/>
<path d="M544.583 7.51943C544.583 14.8267 538.629 20.7812 531.321 20.7812H508.551C501.243 20.7812 495.289 14.8134 495.289 7.51943V0.0132446H484.136V7.51943C484.136 20.9404 495.13 31.9079 508.551 31.9079H531.321C544.742 31.9079 555.736 20.9404 555.736 7.51943V0.0132446H544.583V7.51943Z" fill="#F5F6FA"/>
<path d="M531.321 36.7485H508.551C495.13 36.7485 484.136 47.716 484.136 61.1369V65.5797H495.289V61.1369C495.289 53.8562 501.243 47.8751 508.551 47.8751H531.321C538.629 47.8751 544.583 53.8562 544.583 61.1369V65.5797H555.736V61.1369C555.736 47.716 544.742 36.7485 531.321 36.7485Z" fill="#F5F6FA"/>
<path d="M632.642 22.6246C632.642 10.1851 622.443 0.0132446 610.004 0.0132446H563.521V34.1359H574.661C568.507 34.1359 563.521 39.1223 563.521 45.2758V65.5531H574.674V45.236H602.047L618.385 65.5531H632.655L615.733 44.5066C625.427 41.9604 632.655 33.0882 632.655 22.6246M599.925 34.1359H574.674V11.1134H610.004C616.33 11.1134 621.515 16.2988 621.515 22.6246C621.515 28.9505 616.33 34.1359 610.004 34.1359H599.925Z" fill="#F5F6FA"/>
<path d="M405.732 82.7405L396.687 109.662H400.891L403.491 101.625H414.644L417.243 109.662H421.5L412.27 82.7405H405.719H405.732ZM404.525 98.469L409.074 84.4115L413.623 98.469H404.512H404.525Z" fill="#F5F6FA"/>
<path d="M448.727 99.6758H455.371C455.145 101.174 454.615 102.421 453.793 103.429C452.957 104.437 451.936 105.179 450.729 105.683C449.522 106.174 448.196 106.426 446.764 106.426C443.608 106.426 441.154 105.524 439.417 103.721C437.68 101.917 436.818 99.3708 436.818 96.0951C436.818 93.0316 437.613 90.5915 439.205 88.7481C440.796 86.918 443.21 86.0029 446.432 86.0029C447.798 86.0029 449.071 86.2018 450.238 86.5997C451.406 86.9975 452.4 87.6474 453.222 88.5359C454.045 89.4244 454.628 90.6047 454.946 92.0768L458.779 91.5463C458.169 88.5226 456.843 86.2151 454.814 84.6369C452.772 83.0588 449.987 82.2631 446.446 82.2631C443.793 82.2631 441.459 82.8068 439.443 83.8943C437.414 84.9817 435.849 86.5731 434.735 88.6818C433.621 90.7904 433.025 93.3367 432.972 96.3338C432.932 99.3045 433.449 101.824 434.497 103.893C435.544 105.962 437.043 107.54 438.966 108.628C440.889 109.715 443.17 110.259 445.783 110.259C447.255 110.259 448.554 110.073 449.682 109.688C450.809 109.304 451.777 108.826 452.573 108.23C453.368 107.646 454.018 106.996 454.509 106.32C454.999 105.63 455.358 104.994 455.583 104.384H455.676L456.578 109.688H459.31V96.6786H448.74V99.6891L448.727 99.6758Z" fill="#F5F6FA"/>
<path d="M477.425 97.66H488.91V94.3578H477.425V86.1885H492.159V82.7405H473.5V109.662H492.637V106.413H477.425V97.66Z" fill="#F5F6FA"/>
<path d="M482.544 77.2368H482.73L485.316 80.0616H488.91V79.677L483.499 74.611H481.775L476.324 79.677V80.0616H480.051L482.544 77.2368Z" fill="#F5F6FA"/>
<path d="M525.446 107.898H525.353L513.537 82.7405H506.508V109.662H510.566V84.5043H510.659L521.998 109.662H529.504V82.7405H525.446V107.898Z" fill="#F5F6FA"/>
<path d="M563.176 103.668C562.341 104.609 561.333 105.299 560.139 105.75C558.946 106.201 557.646 106.426 556.24 106.426C553.243 106.426 550.935 105.538 549.304 103.774C547.673 102.01 546.864 99.4371 546.864 96.0553C546.864 92.6736 547.686 90.3528 549.357 88.6155C551.015 86.8782 553.362 86.0029 556.386 86.0029C557.659 86.0029 558.879 86.2151 560.046 86.6262C561.213 87.0373 562.208 87.7137 563.044 88.6287C563.866 89.5571 564.409 90.7771 564.675 92.3155H568.786C568.428 90.313 567.725 88.5492 566.664 87.0506C565.59 85.552 564.197 84.385 562.473 83.5362C560.749 82.6874 558.72 82.2631 556.399 82.2631C553.813 82.2631 551.506 82.7935 549.463 83.8677C547.421 84.9419 545.83 86.5068 544.676 88.6022C543.522 90.6843 542.939 93.2439 542.912 96.2808C542.912 99.3443 543.509 101.904 544.676 103.959C545.856 106.015 547.448 107.567 549.463 108.601C551.466 109.635 553.72 110.153 556.2 110.153C558.68 110.153 560.816 109.728 562.593 108.866C564.356 108.004 565.775 106.811 566.85 105.286C567.924 103.76 568.627 101.997 568.985 100.021H564.821C564.569 101.519 564.025 102.739 563.189 103.681" fill="#F5F6FA"/>
<path d="M582.883 86.1885H586.57V106.227H582.883V109.662H594.129V106.227H590.482V86.1885H594.129V82.7405H582.883V86.1885Z" fill="#F5F6FA"/>
<path d="M628.318 109.662H632.575L623.345 82.7405H616.794L607.749 109.662H611.953L614.552 101.625H625.706L628.305 109.662H628.318ZM615.587 98.469L620.136 84.4115L624.684 98.469H615.574H615.587Z" fill="#F5F6FA"/>
</svg>
